<svg width="324" height="324" viewBox="0 0 324 324" fill="none" xmlns="http://www.w3.org/2000/svg">
<path d="M177 58.6177C165.654 58.6177 154.108 60.1845 143.5 62.6177L320.166 239.118C322.674 228.357 324 217.142 324 205.618C324 204.783 323.993 203.949 323.979 203.118L179.5 58.6385C178.668 58.6246 177.835 58.6177 177 58.6177Z" fill="#F9FAF5"/>
<path d="M261.708 119.618L143.5 1C171.832 6.15804 197.332 19.4374 217.5 38.3382C240.119 59.5361 256.03 87.8048 261.708 119.618Z" fill="#F9FAF5"/>
<path d="M264.172 264.396C237.327 299.771 194.832 322.618 147 322.618C65.8141 322.618 1.64975e-05 256.804 0 175.618C0 127.785 22.8458 85.2892 58.2207 58.4448L264.172 264.396Z" fill="#F9FAF5"/>
<path d="M285.278 225.618C281.959 234.795 277.751 243.547 272.76 251.771L70.8457 49.8569C79.0699 44.8661 87.8224 40.6585 97 37.3394L285.278 225.618Z" fill="#F9FAF5"/>
</svg>
