<svg width="324" height="322" viewBox="0 0 324 322" fill="none" xmlns="http://www.w3.org/2000/svg">
<path d="M177 57.6177C165.654 57.6177 154.108 59.1845 143.5 61.6177L320.166 238.118C322.674 227.357 324 216.142 324 204.618C324 203.783 323.993 202.949 323.979 202.118L179.5 57.6385C178.668 57.6246 177.835 57.6177 177 57.6177Z" fill="#1A1A1A"/>
<path d="M261.708 118.618L143.5 0C171.832 5.15804 197.332 18.4374 217.5 37.3382C240.119 58.5361 256.03 86.8048 261.708 118.618Z" fill="#1A1A1A"/>
<path d="M264.172 263.396C237.327 298.771 194.832 321.618 147 321.618C65.8141 321.618 1.64975e-05 255.804 0 174.618C0 126.785 22.8458 84.2892 58.2207 57.4448L264.172 263.396Z" fill="#1A1A1A"/>
<path d="M285.278 224.618C281.959 233.795 277.751 242.547 272.76 250.771L70.8457 48.8569C79.0699 43.8661 87.8224 39.6585 97 36.3394L285.278 224.618Z" fill="#1A1A1A"/>
</svg>
